<svg width="766" height="187" viewBox="0 0 766 187" fill="none" xmlns="http://www.w3.org/2000/svg">
<g clip-path="url(#clip0_3336_1173)">
<path d="M387.951 38.0585V118.615H355.732V90.0865H318.919V118.615H286.7V38.0585H318.919V65.4382H355.732V38.0585H387.951Z" fill="white"/>
<path d="M478.152 94.6823V118.615H396.466V38.0585H428.685V94.6823H478.152Z" fill="white"/>
<path d="M247.136 38.0585V76.841L211.017 38.0585H210.93H176.956H165.494L176.956 46.7082V118.615H208.027V74.7599L249.888 118.615H278.207V38.0585H247.136Z" fill="white"/>
<path d="M564.712 56.0732L567.746 49.1795L560.574 47.0767C558.385 46.4263 556.782 44.7354 555.785 42.0473L552.622 33.376L545.558 39.2291C543.673 40.7683 541.788 41.5704 539.925 41.5704C537.433 41.5704 534.573 40.3564 532.666 38.4704L528.116 33.9613L523.566 38.4704C521.66 40.3564 518.821 41.5704 516.308 41.5704C514.444 41.5704 512.538 40.79 510.674 39.2291L503.611 33.376L500.447 42.0473C499.472 44.7354 497.869 46.4263 495.681 47.0767L488.509 49.1795L491.542 56.0732C492.951 59.2599 493.666 62.5984 493.666 65.9585C493.666 75.2802 488.899 77.4263 488.899 87.7886C488.899 102.725 500.447 112.502 511.173 115.255C516.589 116.577 518.236 116.664 523.111 117.856C523.501 118.29 528.095 123.233 528.095 123.233C528.095 123.233 532.688 118.29 533.078 117.856C537.975 116.664 539.6 116.556 545.017 115.255C555.742 112.502 567.291 102.725 567.291 87.7886C567.291 77.4263 562.524 75.3019 562.524 65.9585C562.524 62.5984 563.239 59.2599 564.647 56.0732H564.712Z" fill="black"/>
<path d="M566.186 87.7669C566.186 82.8676 565.081 79.876 563.932 76.9928C562.697 73.9144 561.419 70.9662 561.419 65.9368C561.419 61.9697 562.372 58.4361 563.629 55.5746L566.121 49.8949L560.249 48.1606C557.692 47.4019 555.829 45.4725 554.702 42.4158L552.102 35.3054L546.317 40.0963C544.41 41.6788 542.243 42.6977 539.925 42.6977C536.827 42.6977 533.772 41.1585 531.843 39.2508L528.116 35.5655L524.39 39.2725C522.483 41.1585 519.406 42.7193 516.308 42.7193C513.989 42.7193 511.823 41.6788 509.916 40.1179L504.131 35.327L501.531 42.4375C500.404 45.4942 498.541 47.4235 495.984 48.1823L490.091 49.9165L492.604 55.5963C493.861 58.4578 494.814 61.9697 494.814 65.9585C494.814 75.6704 490.069 77.5998 490.069 87.7886C490.069 90.8886 490.589 93.7934 491.542 96.4816C494.749 105.543 502.788 111.895 511.454 114.128C517.001 115.537 519.601 115.667 523.74 116.837C524.281 117.401 528.116 121.542 528.116 121.542C528.116 121.542 531.952 117.379 532.472 116.816C536.61 115.667 539.21 115.515 544.757 114.106C556.002 111.201 566.142 101.424 566.142 87.7669H566.186ZM544.129 111.461C538.17 112.957 534.075 113.347 531.042 114.431C530.651 114.8 528.138 117.553 528.138 117.553C528.138 117.553 525.625 114.821 525.235 114.453C522.201 113.369 518.106 112.979 512.148 111.483C499.624 108.318 492.777 97.7606 492.777 87.7452C492.777 79.6158 496.569 76.4942 497.371 68.82V68.7767C497.457 67.8879 497.522 66.9557 497.522 65.9368C497.522 58.1977 493.817 51.6508 493.817 51.6508C493.817 51.6508 502.896 50.8487 505.366 39.8144C505.366 39.8144 510.804 45.4291 516.329 45.4291C523.458 45.4291 528.138 39.3592 528.138 39.3592C528.138 39.3592 532.818 45.4075 539.925 45.4075C545.45 45.4075 550.889 39.7928 550.889 39.7928C553.359 50.827 562.437 51.6291 562.437 51.6291C562.437 51.6291 558.754 58.176 558.754 65.9151C558.754 75.8438 563.499 78.662 563.499 87.7452C563.499 97.7606 556.652 108.275 544.129 111.44V111.461Z" fill="white"/>
<path d="M560.596 112.22C558.494 112.22 556.782 113.933 556.782 116.035C556.782 118.138 558.472 119.851 560.596 119.851C562.719 119.851 564.387 118.138 564.387 116.035C564.387 113.933 562.676 112.22 560.596 112.22ZM560.596 119.027C558.949 119.027 557.606 117.683 557.606 116.035C557.606 114.388 558.949 113.044 560.596 113.044C562.242 113.044 563.586 114.388 563.586 116.035C563.586 117.683 562.242 119.027 560.596 119.027Z" fill="white"/>
<path d="M562.155 115.125C562.155 114.41 561.57 113.846 560.855 113.846H559.014V118.182H559.837V116.426H560.422L561.245 118.182H562.134L561.267 116.339C561.765 116.165 562.134 115.689 562.134 115.125H562.155ZM560.855 115.602H559.837V114.648H560.855C561.115 114.648 561.332 114.865 561.332 115.125C561.332 115.385 561.115 115.602 560.855 115.602Z" fill="white"/>
<path d="M517.391 88.3955L512.646 81.1116L507.381 85.0788C507.381 85.0788 509.223 85.1221 509.223 87.0732V100.796L512.949 97.999V88.3088L517.196 94.8123L521.118 91.8641V74.7816L517.391 77.5781V88.4389V88.3955Z" fill="white"/>
<path d="M532.493 72.5053L528.29 75.6704V69.362L522.613 73.6326C522.613 73.6326 524.455 73.676 524.455 75.627V89.3494L528.29 86.4662V80.2228L532.493 77.0578V83.3228L536.133 80.5914V63.4872L532.493 66.2186V72.527V72.5053Z" fill="white"/>
<path d="M543.153 70.9011V58.176L537.477 62.4466C537.477 62.4466 539.318 62.49 539.318 64.441V78.1634L549.892 70.2291C549.654 67.4976 549.892 65.8718 549.892 65.8718L543.153 70.9445V70.9011Z" fill="white"/>
<path d="M556.089 65.9151C556.089 58.8263 558.776 53.3634 558.776 53.3634C558.776 53.3634 552.601 52.1061 549.719 44.2802C549.719 44.2802 545.624 48.1172 539.947 48.1172C532.862 48.1172 528.16 43.1312 528.16 43.1312C528.16 43.1312 523.458 48.1172 516.351 48.1172C510.696 48.1172 506.601 44.2802 506.601 44.2802C503.719 52.1061 497.544 53.3634 497.544 53.3634C497.544 53.3634 500.231 58.8263 500.231 65.9151C500.231 76.4291 495.486 79.4641 495.486 87.7452C495.486 99.3214 504.499 106.692 512.863 108.817C519.493 110.507 523.805 110.681 526.73 112.09C526.73 112.09 527.792 113.065 528.182 113.499C528.572 113.065 529.633 112.09 529.633 112.09C532.537 110.681 536.87 110.486 543.5 108.817C551.864 106.692 560.877 99.3214 560.877 87.7452C560.877 79.4641 556.132 76.4291 556.132 65.9151H556.089ZM503.243 65.9151C503.243 61.4061 502.268 57.5256 501.423 55.0109C503.373 53.9487 505.821 52.041 507.771 48.7893C509.873 49.9599 512.841 51.1522 516.33 51.1522C521.638 51.1522 525.755 48.8326 528.138 47.0984C530.5 48.8326 534.638 51.1522 539.925 51.1522C540.77 51.1522 541.594 51.0872 542.352 50.9571L498.996 83.5396C500.253 78.6403 503.199 74.5865 503.199 65.9151H503.243ZM509.158 104.199C503.611 101.338 498.758 95.8746 498.519 88.3522L549.394 50.1116C551.171 52.583 553.207 54.1005 554.876 55.0109C554.031 57.5256 553.056 61.4061 553.056 65.9151C553.056 67.7795 553.186 69.427 553.424 70.9228L509.136 104.199H509.158ZM542.72 105.89C537.477 107.234 531.063 107.906 529.113 109.012C528.68 109.337 528.138 109.9 528.138 109.9C528.138 109.9 527.597 109.337 527.163 109.012C525.235 107.906 518.8 107.212 513.578 105.89C513.383 105.847 513.166 105.782 512.971 105.717L554.247 74.7165C555.656 79.6375 557.801 82.8459 557.801 87.7452C557.801 97.5655 549.979 104.026 542.72 105.868V105.89Z" fill="white"/>
<path d="M624.383 35.5221C644.512 35.5221 666.374 42.5459 666.374 61.0809C666.374 74.89 653.959 83.1711 637.275 87.7886C627.265 90.5417 617.016 94.227 614.611 96.0697H667.761V118.637H578.146V105.044C579.879 88.4606 593.551 75.1284 617.71 68.7984C626.463 66.5005 633.939 64.7662 633.939 61.6662C633.939 59.0214 628.652 57.4172 622.672 57.4172C613.593 57.4172 603.236 61.2109 594.266 68.82L578.167 51.8893C587.722 42.676 604.969 35.5438 624.405 35.5438" fill="white"/>
<path d="M717.227 99.0613C723.792 99.0613 732.069 97.8039 732.069 92.4928C732.069 87.42 724.486 87.0732 718.029 87.0732H703.88V67.9746H718.029C723.771 67.9746 730.097 66.8256 730.097 62.9019C730.097 58.6529 723.077 57.6123 716.859 57.6123C708.105 57.6123 700.413 60.7123 693.047 67.2809L674.651 53.2333C683.73 42.1774 700.543 35.5005 719.177 35.5005C741.039 35.5005 762.902 41.8305 762.902 58.4144C762.902 66.934 757.03 75.562 744.615 77.2963C756.921 79.5942 766.022 85.2305 766.022 96.048C766.022 112.632 745.308 121.13 719.199 121.13C700.327 121.13 683.426 114.453 673.979 103.397L692.375 89.3494C699.742 95.441 707.91 99.0179 717.227 99.0179V99.0613Z" fill="white"/>
<path d="M78.0019 156.379C121.081 156.379 156.004 121.438 156.004 78.3368C156.004 35.2354 121.081 0.294884 78.0019 0.294884C34.9226 0.294884 0 35.2354 0 78.3368C0 121.438 34.9226 156.379 78.0019 156.379Z" fill="white"/>
<path d="M129.31 90.9102H131.303V91.2571H130.501V92.948H130.111V91.2571H129.31V90.9102V90.9102ZM36.2707 98.7578H31.7856C30.7672 98.7578 30.2689 98.1942 30.2689 97.0886V95.3109C30.2689 94.8123 30.3989 94.4004 30.6805 94.0536C30.9406 93.7284 31.3089 93.555 31.7639 93.555H35.2957C36.119 93.555 36.6824 93.9452 36.9424 94.769L37.4407 96.4816H40.6691V94.5956C40.6691 93.3382 40.2574 92.2977 39.4124 91.4522C38.5457 90.6067 37.5057 90.1949 36.2923 90.1949H31.0706C29.8355 90.1949 28.7738 90.6284 27.8855 91.5172C27.0188 92.3844 26.5854 93.4466 26.5854 94.6606V97.6956C26.5854 98.9312 27.0188 99.9935 27.8855 100.882C28.7738 101.749 29.8355 102.183 31.0706 102.183H35.5557C36.5524 102.183 37.0507 102.768 37.0507 103.896V106.193C37.0507 106.67 36.9207 107.104 36.6607 107.429C36.379 107.754 36.0107 107.928 35.5773 107.928H32.0022C31.0922 107.928 30.5505 107.516 30.3339 106.714L29.8572 104.784H26.6071V106.887C26.6071 108.166 27.0188 109.207 27.8638 110.052C28.7088 110.898 29.7489 111.31 31.0056 111.31H36.2923C37.5057 111.31 38.5891 110.876 39.4558 109.987C40.3224 109.12 40.7558 108.058 40.7558 106.822V103.245C40.7558 102.031 40.3224 100.969 39.4341 100.08C38.5674 99.1914 37.5057 98.7578 36.2923 98.7578H36.2707ZM57.8079 91.5389C58.6746 92.406 59.1079 93.4466 59.1079 94.6606V99.083C59.1079 100.319 58.6746 101.381 57.8079 102.248C56.9195 103.115 55.8578 103.57 54.6228 103.57H48.816V111.31H45.0892V90.2382H54.6228C55.8578 90.2382 56.9195 90.6718 57.8079 91.5606V91.5389ZM55.3811 95.3543C55.3811 94.834 55.2295 94.4438 54.9478 94.1186C54.6661 93.7935 54.2978 93.6417 53.8644 93.6417H48.7943V100.189H53.8644C54.2978 100.189 54.6661 100.015 54.9478 99.69C55.2295 99.3648 55.3811 98.9529 55.3811 98.4543V95.376V95.3543ZM92.4537 102.595L96.1588 111.31H92.1937L88.7703 103.05H85.2385V111.31H81.5118V90.2382H90.8287C92.0854 90.2382 93.1254 90.6718 93.9921 91.5606C94.8588 92.4277 95.3138 93.49 95.3138 94.6823V98.3676C95.3138 99.3214 95.0538 100.189 94.5337 100.969C93.9921 101.728 93.2987 102.27 92.4754 102.638L92.4537 102.595ZM91.5653 95.3543C91.5653 94.8557 91.4353 94.4438 91.1753 94.1186C90.9153 93.7935 90.547 93.6417 90.1136 93.6417H85.2385V99.6683H90.1136C90.547 99.6683 90.8937 99.5165 91.1753 99.1914C91.4353 98.8662 91.5653 98.4543 91.5653 97.9557V95.3543ZM97.6538 93.62H103.006V111.288H106.732V93.62H112.128V90.2165H97.6322V93.62H97.6538ZM124.543 98.7578H120.058C119.061 98.7578 118.563 98.1942 118.563 97.0886V95.3109C118.563 94.8123 118.693 94.4004 118.974 94.0536C119.234 93.7284 119.624 93.555 120.058 93.555H123.589C124.413 93.555 124.976 93.9452 125.236 94.769L125.734 96.4816H128.963V94.5956C128.963 93.3382 128.53 92.2977 127.685 91.4522C126.818 90.6067 125.778 90.1949 124.543 90.1949H119.343C118.108 90.1949 117.024 90.6284 116.179 91.5172C115.313 92.3844 114.858 93.4466 114.858 94.6606V97.6956C114.858 98.9312 115.313 99.9935 116.179 100.882C117.046 101.749 118.108 102.183 119.343 102.183H123.828C124.824 102.183 125.323 102.768 125.323 103.896V106.193C125.323 106.67 125.193 107.104 124.933 107.429C124.651 107.754 124.283 107.928 123.828 107.928H120.253C119.364 107.928 118.801 107.516 118.584 106.714L118.108 104.784H114.858V106.887C114.858 108.166 115.291 109.207 116.114 110.052C116.959 110.898 117.999 111.31 119.256 111.31H124.521C125.778 111.31 126.818 110.876 127.706 109.987C128.573 109.12 129.006 108.058 129.006 106.822V103.245C129.006 102.031 128.573 100.969 127.663 100.08C126.796 99.1914 125.734 98.7578 124.521 98.7578H124.543ZM133.73 90.9102L132.928 92.1459L132.126 90.9102H131.78V92.948H132.126V91.6907C132.126 91.6907 132.083 91.5606 132.083 91.4739C132.126 91.5389 132.17 91.6256 132.213 91.669L132.885 92.6879H132.95L133.6 91.6907C133.6 91.6907 133.665 91.5606 133.708 91.4739C133.708 91.5823 133.708 91.6473 133.708 91.6907V92.948H134.076V90.9102H133.773H133.73ZM75.64 91.5172C76.5283 92.3627 76.9617 93.4249 76.9617 94.6606V106.779C76.9617 108.058 76.5283 109.12 75.64 109.987C74.7516 110.854 73.7332 111.31 72.4766 111.31H67.4498C66.1931 111.31 65.1314 110.876 64.2647 109.987C63.398 109.12 62.943 108.058 62.943 106.779V94.6606C62.943 93.4466 63.398 92.3844 64.2647 91.5389C65.1314 90.6718 66.1931 90.2165 67.4498 90.2165H72.4766C73.7332 90.2165 74.7733 90.6501 75.64 91.5172V91.5172ZM73.2349 95.3543C73.2349 94.8557 73.1049 94.4438 72.8016 94.1186C72.5199 93.7935 72.1732 93.6417 71.7399 93.6417H68.1648C67.7098 93.6417 67.3414 93.7935 67.0598 94.1186C66.7997 94.4438 66.6697 94.8557 66.6697 95.3543V106.15C66.6697 106.649 66.7997 107.039 67.0598 107.386C67.3414 107.733 67.6881 107.906 68.1648 107.906H71.7399C72.1732 107.906 72.5415 107.733 72.8016 107.386C73.0832 107.061 73.2349 106.649 73.2349 106.15V95.3543V95.3543ZM88.9436 36.4326H48.8593L42.7275 46.1879H82.8118L88.9653 36.4326H88.9436ZM104.132 65.6767H98.1305L91.9553 75.4536H110.286L116.439 85.2088H128.14L97.1121 36.0858L72.1949 75.4536H44.9376L51.1994 65.6767H68.1214L74.2966 55.9214H36.5524L30.3772 65.6767H39.4341L27.0838 85.2088H77.8717L97.1338 54.5774L104.132 65.655V65.6767Z" fill="black"/>
</g>
<defs>
<clipPath id="clip0_3336_1173">
<rect width="766" height="156.084" fill="white" transform="translate(0 0.294884)"/>
</clipPath>
</defs>
</svg>
